<mxfile host="app.diagrams.net" agent="Mozilla/5.0 (Windows NT 10.0; Win64; x64) AppleWebKit/537.36 (KHTML, like Gecko) Chrome/134.0.0.0 Safari/537.36 Avast/134.0.0.0" version="27.0.6">
  <diagram name="Page-3" id="9TzZ1uqGF0M_xpFSsuD3">
    <mxGraphModel dx="1042" dy="527" grid="1" gridSize="10" guides="1" tooltips="1" connect="1" arrows="1" fold="1" page="1" pageScale="1" pageWidth="827" pageHeight="1169" math="0" shadow="0">
      <root>
        <mxCell id="0" />
        <mxCell id="1" parent="0" />
        <mxCell id="3syt1zSSwUmMcx6NlKCd-8" value="Kupac podnosi zahtjev&amp;nbsp;" style="edgeStyle=orthogonalEdgeStyle;rounded=0;orthogonalLoop=1;jettySize=auto;html=1;exitX=1;exitY=0.5;exitDx=0;exitDy=0;entryX=0;entryY=0.75;entryDx=0;entryDy=0;" parent="1" source="3syt1zSSwUmMcx6NlKCd-1" target="3syt1zSSwUmMcx6NlKCd-2" edge="1">
          <mxGeometry relative="1" as="geometry" />
        </mxCell>
        <mxCell id="3syt1zSSwUmMcx6NlKCd-1" value="KUPAC" style="rounded=0;whiteSpace=wrap;html=1;" parent="1" vertex="1">
          <mxGeometry x="40" y="50" width="120" height="60" as="geometry" />
        </mxCell>
        <mxCell id="3syt1zSSwUmMcx6NlKCd-14" style="edgeStyle=orthogonalEdgeStyle;rounded=0;orthogonalLoop=1;jettySize=auto;html=1;entryX=0.5;entryY=0;entryDx=0;entryDy=0;" parent="1" source="3syt1zSSwUmMcx6NlKCd-2" target="3syt1zSSwUmMcx6NlKCd-3" edge="1">
          <mxGeometry relative="1" as="geometry">
            <Array as="points">
              <mxPoint x="465" y="140" />
              <mxPoint x="465" y="140" />
            </Array>
          </mxGeometry>
        </mxCell>
        <mxCell id="3syt1zSSwUmMcx6NlKCd-2" value="P4.1&lt;div&gt;Zahtjev za kupnju vina&lt;/div&gt;" style="rounded=1;whiteSpace=wrap;html=1;" parent="1" vertex="1">
          <mxGeometry x="400" y="40" width="120" height="60" as="geometry" />
        </mxCell>
        <mxCell id="epfMJy70rfp5bWERn1Uh-2" style="edgeStyle=orthogonalEdgeStyle;rounded=0;orthogonalLoop=1;jettySize=auto;html=1;exitX=0.5;exitY=1;exitDx=0;exitDy=0;entryX=0.5;entryY=0;entryDx=0;entryDy=0;" parent="1" source="3syt1zSSwUmMcx6NlKCd-3" target="3syt1zSSwUmMcx6NlKCd-5" edge="1">
          <mxGeometry relative="1" as="geometry">
            <Array as="points">
              <mxPoint x="460" y="270" />
            </Array>
          </mxGeometry>
        </mxCell>
        <mxCell id="3syt1zSSwUmMcx6NlKCd-3" value="P4.2&lt;div&gt;&lt;span style=&quot;background-color: transparent; color: light-dark(rgb(0, 0, 0), rgb(255, 255, 255));&quot;&gt;Obrada i administracija narudzbe&amp;nbsp;&lt;/span&gt;&lt;/div&gt;&lt;div&gt;( izdavanje računa)&lt;/div&gt;" style="rounded=1;whiteSpace=wrap;html=1;" parent="1" vertex="1">
          <mxGeometry x="400" y="200" width="130" height="70" as="geometry" />
        </mxCell>
        <mxCell id="3syt1zSSwUmMcx6NlKCd-5" value="P4.3&lt;div&gt;Pakiranje i isporuka vina&lt;/div&gt;" style="rounded=1;whiteSpace=wrap;html=1;" parent="1" vertex="1">
          <mxGeometry x="400" y="360" width="120" height="60" as="geometry" />
        </mxCell>
        <mxCell id="3syt1zSSwUmMcx6NlKCd-6" value="DJELATNIK" style="rounded=0;whiteSpace=wrap;html=1;" parent="1" vertex="1">
          <mxGeometry x="695" y="205" width="120" height="60" as="geometry" />
        </mxCell>
        <mxCell id="3syt1zSSwUmMcx6NlKCd-7" value="Baza podataka" style="shape=cylinder3;whiteSpace=wrap;html=1;boundedLbl=1;backgroundOutline=1;size=15;fillColor=#1ba1e2;fontColor=#ffffff;strokeColor=#006EAF;" parent="1" vertex="1">
          <mxGeometry x="720" y="345" width="70" height="90" as="geometry" />
        </mxCell>
        <mxCell id="3syt1zSSwUmMcx6NlKCd-13" value="Isporuka&amp;nbsp;&lt;div&gt;vina kupcu&lt;/div&gt;" style="endArrow=classic;html=1;rounded=0;exitX=0;exitY=0;exitDx=0;exitDy=0;entryX=0.75;entryY=1;entryDx=0;entryDy=0;" parent="1" source="3syt1zSSwUmMcx6NlKCd-5" target="3syt1zSSwUmMcx6NlKCd-1" edge="1">
          <mxGeometry width="50" height="50" relative="1" as="geometry">
            <mxPoint x="390" y="300" as="sourcePoint" />
            <mxPoint x="440" y="250" as="targetPoint" />
          </mxGeometry>
        </mxCell>
        <mxCell id="3syt1zSSwUmMcx6NlKCd-16" value="U bazu se&amp;nbsp;&lt;div&gt;sprema zapis&lt;/div&gt;&lt;div&gt;o prodanom&amp;nbsp;&lt;/div&gt;&lt;div&gt;vinu&lt;/div&gt;" style="endArrow=classic;html=1;rounded=0;exitX=1;exitY=0.5;exitDx=0;exitDy=0;entryX=0;entryY=0.5;entryDx=0;entryDy=0;entryPerimeter=0;" parent="1" source="3syt1zSSwUmMcx6NlKCd-5" target="3syt1zSSwUmMcx6NlKCd-7" edge="1">
          <mxGeometry width="50" height="50" relative="1" as="geometry">
            <mxPoint x="390" y="300" as="sourcePoint" />
            <mxPoint x="440" y="250" as="targetPoint" />
            <Array as="points">
              <mxPoint x="550" y="390" />
            </Array>
          </mxGeometry>
        </mxCell>
        <mxCell id="3syt1zSSwUmMcx6NlKCd-26" value="" style="endArrow=classic;html=1;rounded=0;exitX=0;exitY=0.75;exitDx=0;exitDy=0;entryX=1;entryY=0;entryDx=0;entryDy=0;" parent="1" source="3syt1zSSwUmMcx6NlKCd-6" target="3syt1zSSwUmMcx6NlKCd-5" edge="1">
          <mxGeometry width="50" height="50" relative="1" as="geometry">
            <mxPoint x="390" y="300" as="sourcePoint" />
            <mxPoint x="530" y="250" as="targetPoint" />
            <Array as="points" />
          </mxGeometry>
        </mxCell>
        <mxCell id="j-RS9Aa45aK4MeALnXSv-2" value="" style="endArrow=none;html=1;rounded=0;exitX=0.007;exitY=0.367;exitDx=0;exitDy=0;exitPerimeter=0;entryX=1.007;entryY=0.38;entryDx=0;entryDy=0;entryPerimeter=0;elbow=vertical;" parent="1" source="3syt1zSSwUmMcx6NlKCd-2" target="3syt1zSSwUmMcx6NlKCd-2" edge="1">
          <mxGeometry width="50" height="50" relative="1" as="geometry">
            <mxPoint x="380" y="320" as="sourcePoint" />
            <mxPoint x="430" y="270" as="targetPoint" />
          </mxGeometry>
        </mxCell>
        <mxCell id="j-RS9Aa45aK4MeALnXSv-3" value="" style="endArrow=none;html=1;rounded=0;exitX=0;exitY=0.25;exitDx=0;exitDy=0;entryX=1;entryY=0.25;entryDx=0;entryDy=0;" parent="1" source="3syt1zSSwUmMcx6NlKCd-3" target="3syt1zSSwUmMcx6NlKCd-3" edge="1">
          <mxGeometry width="50" height="50" relative="1" as="geometry">
            <mxPoint x="380" y="320" as="sourcePoint" />
            <mxPoint x="430" y="270" as="targetPoint" />
          </mxGeometry>
        </mxCell>
        <mxCell id="j-RS9Aa45aK4MeALnXSv-8" value="" style="endArrow=none;html=1;rounded=0;exitX=0;exitY=0.5;exitDx=0;exitDy=0;entryX=1;entryY=0.5;entryDx=0;entryDy=0;" parent="1" edge="1">
          <mxGeometry width="50" height="50" relative="1" as="geometry">
            <mxPoint x="400" y="380" as="sourcePoint" />
            <mxPoint x="520" y="380" as="targetPoint" />
          </mxGeometry>
        </mxCell>
      </root>
    </mxGraphModel>
  </diagram>
</mxfile>
